<?xml version="1.0" encoding="UTF-8"?>


<svg width="640px" height="780px" viewBox="0 0 168 122" fill="none" xmlns="http://www.w3.org/2000/svg">
<path d="M3.18153 49.4417H14.4729V62.4797H24.1422V49.4417H35.4335V85H24.1422V69.6538H14.4729V85H3.18153V49.4417ZM41.4311 49.4417H67.32V56.9277H52.66V63.4155H65.0118V70.1529H52.66V77.3893H67.2576V85H41.4311V49.4417ZM71.9568 49.4417H83.1857V76.7654H97.721V85H71.9568V49.4417ZM111.981 59.0487C111.981 59.922 112.418 60.6083 113.291 61.1073C114.206 61.6064 115.62 62.147 117.533 62.7293C119.82 63.4779 121.692 64.2057 123.147 64.9127C124.645 65.6197 125.934 66.7218 127.015 68.219C128.138 69.7162 128.699 71.6708 128.699 74.083C128.699 81.8185 123.667 85.6862 113.603 85.6862C111.939 85.6862 109.901 85.5407 107.489 85.2495C105.119 84.9584 102.956 84.5841 101.001 84.1266C101.085 83.2533 101.251 81.9848 101.501 80.3213C101.792 78.6161 102.062 77.3477 102.311 76.5159C103.767 76.7239 105.95 76.9734 108.862 77.2645C111.814 77.5556 114.039 77.7012 115.537 77.7012C116.41 77.7012 116.93 77.6388 117.096 77.514C117.346 77.3477 117.533 77.0774 117.658 76.7031C117.824 76.2872 117.907 75.9337 117.907 75.6426C117.907 74.8108 117.512 74.187 116.722 73.7711C115.932 73.3136 114.58 72.7729 112.667 72.1491C110.38 71.4421 108.487 70.7143 106.99 69.9657C105.493 69.2171 104.183 68.0526 103.06 66.4723C101.937 64.8919 101.376 62.8125 101.376 60.234C101.376 58.4041 101.792 56.6157 102.623 54.869C103.455 53.0807 104.308 51.8746 105.181 51.2508C105.847 50.7933 107.219 50.3567 109.298 49.9408C111.378 49.5249 113.332 49.3169 115.162 49.3169C119.82 49.3169 123.626 49.7536 126.578 50.627C126.537 51.4588 126.391 52.6024 126.142 54.058C125.934 55.5136 125.705 56.8445 125.456 58.0506L124.021 57.9882C118.614 57.6139 115.162 57.4267 113.665 57.4267C113.041 57.4267 112.688 57.4475 112.605 57.4891C112.438 57.5723 112.293 57.7594 112.168 58.0506C112.043 58.3417 111.981 58.6744 111.981 59.0487ZM133.543 49.4417H159.432V56.9277H144.772V63.4155H157.124V70.1529H144.772V77.3893H159.37V85H133.543V49.4417Z" fill="white"/>
<path d="M61.1941 15.9285C62.8302 12.1111 87.3708 -1.52259 86.5528 1.47682C85.7348 4.47623 78.3726 35.2883 74.5551 36.1064C70.7377 36.9244 60.9215 35.0157 59.5581 31.7436C58.1947 28.4715 59.5581 19.7459 61.1941 15.9285Z" fill="#8787FF"/>
<path d="M89.5522 1.47682C87.9161 6.65758 83.5534 26.0174 84.3714 30.1075C85.1894 34.1977 101.004 39.3785 107.549 25.7448C114.093 12.1111 96.369 23.5634 96.6417 19.7459C96.9144 15.9285 100.459 13.7471 101.004 9.9297C101.55 6.11227 91.1882 -3.70394 89.5522 1.47682Z" fill="#8787FF"/>
</svg>
